<svg xmlns="http://www.w3.org/2000/svg" viewBox="0 0 133 31" width="133" height="31">
	<style>
		tspan { white-space:pre }
		.shp0 { fill: #000000 } 
	</style>
	<g id="Web">
		<g id="Home">
			<g id="logo">
				<path id="" fill-rule="evenodd" class="shp0" d="M27.43 14.57C27.43 16.46 27.45 18.34 27.34 20.23C27.23 22.43 26.73 24.37 25.13 25.98C23.52 27.59 21.57 28.09 19.38 28.2C17.48 28.3 15.61 28.29 13.71 28.29C11.82 28.29 9.95 28.3 8.05 28.2C5.86 28.09 3.91 27.59 2.3 25.98C0.7 24.37 0.2 22.43 0.09 20.23C-0.02 18.34 0 16.46 0 14.57C0 12.68 -0.02 10.8 0.09 8.91C0.2 6.71 0.7 4.77 2.3 3.16C3.91 1.55 5.86 1.05 8.05 0.95C9.95 0.84 11.82 0.86 13.71 0.86C15.61 0.86 17.48 0.84 19.38 0.95C21.57 1.05 23.52 1.55 25.13 3.16C26.73 4.77 27.23 6.71 27.34 8.91C27.45 10.8 27.43 12.68 27.43 14.57ZM13.71 3.32C11.71 3.32 7.43 3.16 5.63 3.87C5 4.12 4.54 4.43 4.05 4.91C3.57 5.39 3.27 5.86 3.02 6.48C2.3 8.29 2.46 12.57 2.46 14.57C2.46 16.57 2.3 20.86 3.02 22.66C3.27 23.29 3.57 23.75 4.05 24.23C4.54 24.71 5 25.02 5.63 25.27C7.43 25.98 11.71 25.82 13.71 25.82C15.71 25.82 20 25.98 21.8 25.27C22.43 25.02 22.89 24.71 23.38 24.23C23.86 23.75 24.16 23.29 24.41 22.66C25.13 20.86 24.96 16.57 24.96 14.57C24.96 12.57 25.13 8.29 24.41 6.48C24.16 5.86 23.86 5.39 23.38 4.91C22.89 4.43 22.43 4.12 21.8 3.87C20 3.16 15.71 3.32 13.71 3.32ZM22.68 7.25C22.68 8.16 21.95 8.89 21.04 8.89C20.13 8.89 19.39 8.16 19.39 7.25C19.39 6.34 20.13 5.61 21.04 5.61C21.95 5.61 22.68 6.34 22.68 7.25ZM20.75 14.57C20.75 18.46 17.61 21.61 13.71 21.61C9.82 21.61 6.68 18.46 6.68 14.57C6.68 10.68 9.82 7.54 13.71 7.54C17.61 7.54 20.75 10.68 20.75 14.57ZM18.29 14.57C18.29 12.05 16.23 10 13.71 10C11.2 10 9.14 12.05 9.14 14.57C9.14 17.09 11.2 19.14 13.71 19.14C16.23 19.14 18.29 17.09 18.29 14.57Z" />
				<path id="Instagumb " fill="#000000" d="M35.58 23.75Q31.77 23.75 30.2 21.09Q29 19.01 29.67 16.61Q30.33 14.2 32.18 13.25Q33.05 12.82 34.07 12.82Q36.78 12.82 37.78 14.92Q38.22 15.84 38.22 16.68Q38.22 17.53 37.91 18.3Q37.24 20.06 35.73 20.06Q35.27 20.06 35.07 19.7L35.02 19.58Q36.12 19.58 36.73 18.01Q37.04 17.25 37.04 16.48Q37.04 15.68 36.71 14.87Q36.07 13.3 34.02 13.3Q31.97 13.3 30.77 15.3Q29.97 16.63 29.97 18.12Q29.97 18.73 30.1 19.4Q30.64 21.8 32.87 22.67Q33.87 23.06 35.35 23.06Q36.84 23.06 38.12 22.39Q39.42 21.7 40.21 20.5Q41.03 19.29 41.6 17.84Q42.16 16.38 42.52 14.56Q42.9 12.74 43.16 11.13Q43.88 6.55 44.46 4.8Q42.08 4.63 41.98 4.63Q38.35 4.63 36.89 7.01Q36.22 8.08 36.22 9.21Q36.22 9.75 36.37 10.28Q36.84 11.82 38.06 11.82Q38.06 12.02 37.86 12.2Q37.65 12.38 37.35 12.38Q35.89 12.38 35.27 10.87Q34.99 10.13 34.99 9.26Q34.99 8.39 35.5 7.31Q36.63 4.88 39.63 4.22Q40.57 4.01 41.34 4.01Q42.13 4.01 44.67 4.24Q45.82 1.32 47.97 1.32Q48.15 1.32 48.28 1.45Q48.43 1.55 48.51 1.76Q46.64 1.76 45.85 4.32L46.36 4.32Q49 4.32 50.04 2.65Q50.45 2.01 50.45 1.55Q50.45 0.35 49.61 0.35Q49.76 -0.11 50.2 -0.11Q50.94 -0.11 51.2 0.81Q51.27 1.14 51.27 1.45Q51.27 2.37 50.56 3.27Q49.2 4.91 46.33 4.91L45.69 4.91Q45.23 6.7 45 9.28Q44.77 11.84 44.49 13.53Q44.23 15.2 43.88 16.61Q43.54 18.01 42.85 19.37Q42.19 20.73 41.26 21.68Q40.34 22.6 38.88 23.19Q37.42 23.75 35.58 23.75ZM48.05 20.86Q47.33 20.86 47.33 19.76Q47.33 19.17 48.76 11.18Q48.84 10.64 49.23 10.64Q49.69 10.64 49.92 11.31Q50.04 11.67 50.04 12.1Q50.04 12.51 49.94 13L49.53 15.04L49.69 15.04Q51.99 9.87 54.09 9.87Q54.91 9.87 55.34 10.39Q55.78 10.87 55.78 11.74Q55.78 12.61 55.09 15.51Q54.4 18.4 54.4 19.52Q54.4 21.19 55.01 21.19Q55.01 21.37 54.78 21.55Q54.55 21.73 54.24 21.73Q52.76 21.73 52.76 19.4Q52.76 17.96 53.53 15.07Q54.32 12.15 54.32 11.36Q54.32 10.54 53.68 10.54Q52.76 10.54 51.45 12.95Q50.17 15.35 49.38 17.55Q48.61 19.73 48.48 20.29Q48.38 20.86 48.05 20.86ZM62 7.19L62.05 7.19Q62.28 7.21 62.41 7.39Q62.54 7.57 62.54 7.77Q62.54 7.95 62.18 8.57Q61.85 9.18 61.85 9.57Q61.85 9.92 61.95 10.26Q62.05 10.56 62.59 11.79Q63.77 14.48 63.77 16.61Q63.77 18.71 62.61 20.09Q61.49 21.47 59.9 21.47Q58.34 21.47 58.34 19.58Q58.34 17.66 59.7 15.48Q60.49 14.23 61.41 13.59Q61.67 13.41 61.74 13.66Q61.85 13.92 61.64 14.07Q60.16 15.15 59.34 17.48Q58.6 19.58 59.18 20.4Q59.39 20.7 59.77 20.7Q60.9 20.7 61.54 19.19Q62.18 17.68 62.18 15.43Q62.18 13.48 61.72 11.82Q61.26 10.16 61.21 9.9Q60.44 11.36 59.54 13.18L58.85 13.18Q60.31 10.28 61.1 8.82Q61.21 7.19 62 7.19ZM66.25 9.67Q66.25 9.39 66.61 9.39L67.94 9.39Q68.07 8.88 68.27 8.11L68.63 6.78Q68.78 6.19 68.89 5.7Q69.01 5.21 69.35 5.21Q69.78 5.21 69.96 5.88Q70.04 6.16 70.04 6.57Q70.04 6.98 69.88 7.62L69.4 9.39L70.99 9.39Q71.22 9.39 71.29 9.54Q71.4 9.69 71.29 9.85Q71.22 9.98 70.99 9.98L69.24 9.98Q67.66 15.94 67.66 18.42Q67.66 20.24 68.48 20.24Q69.14 20.24 70.35 18.48Q71.55 16.71 72.42 14.94L73.29 13.18L73.98 13.18Q73.83 13.48 73.57 14.02Q73.34 14.53 72.62 15.89Q71.91 17.22 71.24 18.24Q70.6 19.27 69.78 20.11Q68.99 20.93 68.3 20.93Q67.61 20.93 67.09 20.5Q66.61 20.04 66.45 19.22Q66.33 18.37 66.33 17.5Q66.33 15.48 67.76 9.98L66.61 9.98Q66.4 9.98 66.33 9.87Q66.25 9.75 66.25 9.67ZM73.98 20.88Q71.96 20.88 71.96 17.84Q71.96 16.07 72.88 13.97Q74.16 11.13 76.13 10.26Q76.82 9.98 77.51 9.98Q78.23 9.98 78.64 10.39Q79.05 10.8 79.05 11.31Q79.05 11.54 78.79 11.54Q78.56 11.51 78.56 11.28Q78.56 11.05 78.31 10.87Q78.08 10.67 77.62 10.67Q76 10.67 74.7 13.56Q73.47 16.25 73.47 18.65Q73.47 20.14 74.11 20.14Q74.77 20.14 75.7 19.04Q76.64 17.91 77.44 16.43Q79.15 13.3 79.46 12.41Q79.77 11.51 80.12 11.51Q80.76 11.51 80.76 12.59Q80.76 12.92 80.69 13.36Q79.84 17.45 79.77 18.09Q79.72 18.73 79.72 19.01Q79.72 20.24 80.3 20.24Q80.97 20.24 82.17 18.48Q83.38 16.71 84.25 14.94L85.12 13.18L85.81 13.18Q85.65 13.48 85.4 14.02Q85.17 14.53 84.45 15.89Q83.73 17.22 83.07 18.24Q82.43 19.27 81.61 20.11Q80.82 20.93 80.23 20.93Q78.33 20.93 78.33 18.17Q78.33 17.25 78.54 16.02L78.36 16.02Q75.75 20.88 73.98 20.88ZM91.95 11.51Q92.59 11.51 92.59 12.59Q92.59 13.36 91.75 17.04Q90.9 20.7 90.24 23.11Q89.57 25.52 88.98 26.69Q88.39 27.84 87.55 29.02Q86.73 30.2 85.73 30.64Q84.73 31.07 83.43 31.07Q81 31.07 81 28.59Q81 27.13 82.1 25.44Q83.68 22.96 86.35 22.16Q87.29 21.88 88.32 21.88Q88.5 21.88 88.5 22.24Q88.5 22.6 88.32 22.6Q85.3 22.6 83.25 24.98Q81.74 26.77 81.74 28.43Q81.74 30.1 83.02 30.35L83.43 30.38Q85.53 30.38 86.76 28.64Q88.01 26.87 88.73 24.18Q89.44 21.47 90.57 15.68L90.36 15.68Q87.6 20.88 85.81 20.88Q83.79 20.88 83.79 17.84Q83.79 16.07 84.71 13.97Q85.99 11.13 87.96 10.26Q88.65 9.98 89.34 9.98Q90.06 9.98 90.47 10.39Q90.88 10.8 90.88 11.31Q90.88 11.54 90.62 11.54Q90.39 11.51 90.39 11.28Q90.39 11.05 90.13 10.87Q89.9 10.67 89.44 10.67Q87.83 10.67 86.52 13.56Q85.3 16.25 85.3 18.65Q85.3 20.14 85.94 20.14Q86.78 20.14 88.14 18.14Q90.19 15.12 91.34 12.23Q91.64 11.51 91.95 11.51ZM102.19 20.24Q102.86 20.24 104.06 18.48Q105.26 16.71 106.13 14.94L107 13.18L107.7 13.18Q107.54 13.48 107.29 14.02Q107.06 14.53 106.34 15.89Q105.62 17.22 104.96 18.24Q104.32 19.27 103.5 20.11Q102.7 20.93 101.99 20.93Q101.27 20.93 100.81 20.5Q100.25 19.93 100.25 18.53Q100.25 17.12 100.73 14.81L100.55 14.81Q97.61 20.86 95.66 20.86Q93.95 20.86 93.95 18.63Q93.95 17.02 95.33 12.2Q95.64 11.1 95.79 10.56Q95.95 10 96.28 10Q96.74 10 96.94 10.67Q97.05 10.95 97.05 11.38Q97.05 11.79 96.92 12.31Q96.79 12.79 96.38 14.2Q95.28 17.99 95.28 19.29Q95.28 20.14 95.79 20.14Q96.43 20.14 97.3 18.99Q98.22 17.78 98.81 16.66Q99.4 15.53 99.76 14.81Q100.12 14.1 100.48 13.33Q100.84 12.54 101.04 12.02Q101.27 11.51 101.48 11.05Q101.68 10.56 101.68 10.54Q101.91 10 102.19 10Q102.65 10 102.86 10.67Q102.96 10.97 102.96 11.41Q102.96 11.84 102.86 12.33Q102.76 12.79 102.52 13.71Q102.29 14.64 102.17 15.22Q102.04 15.81 101.86 16.66Q101.6 18.07 101.6 19.17Q101.6 20.24 102.19 20.24ZM106.62 20.86Q105.9 20.86 105.9 19.76Q105.9 19.17 107.34 11.18Q107.41 10.64 107.8 10.64Q108.26 10.64 108.49 11.31Q108.62 11.67 108.62 12.1Q108.62 12.51 108.52 13L108.13 14.94L108.28 14.94Q110.54 9.87 112.64 9.87Q113.35 9.87 113.76 10.39Q114.2 10.9 114.2 11.61Q114.2 12.95 113.79 14.94L113.89 14.94Q116.07 10.21 118.17 10.21Q118.86 10.21 119.29 10.72Q119.73 11.23 119.73 12.08Q119.73 12.92 119.06 15.66Q118.42 18.4 118.42 19.52Q118.42 21.19 119.04 21.19Q119.04 21.37 118.81 21.55Q118.58 21.73 118.27 21.73Q116.78 21.73 116.78 19.4Q116.78 17.94 117.53 15.2Q118.27 12.43 118.27 11.67Q118.27 10.87 117.76 10.87Q116.81 10.87 115.53 13.18Q114.28 15.45 113.51 17.55Q112.76 19.65 112.64 20.27Q112.51 20.86 112.18 20.86Q111.46 20.86 111.46 19.76Q111.46 19.35 111.89 16.86Q112.74 12.31 112.74 11.44Q112.74 10.54 112.23 10.54Q111.54 10.54 110.61 11.97Q109.69 13.38 108.95 15.25Q107.34 19.19 107.06 20.34Q106.95 20.86 106.62 20.86ZM128.28 9.52Q129.43 9.52 129.43 11.92Q129.43 12.18 129.4 12.46Q129.71 12.56 130.3 12.56Q130.89 12.56 131.35 12.08Q131.81 11.59 131.81 11.18Q131.81 11.08 131.94 11.05Q132.07 11 132.17 11.05Q132.3 11.1 132.3 11.2Q132.3 11.95 131.66 12.61Q131.04 13.28 129.99 13.28Q129.71 13.28 129.35 13.23Q129.15 14.97 128.53 16.68Q127.92 18.37 126.9 19.63Q125.9 20.86 124.82 20.86Q122.29 20.86 122.29 17.35Q122.29 15.17 123.21 11.1Q124.16 7.01 125.72 3.5Q127.28 -0.01 128.69 -0.01Q129.76 -0.01 129.76 1.32Q129.76 1.78 129.64 2.4Q129.15 4.83 127.38 7.42Q126.05 9.36 124.95 9.82Q123.64 15.53 123.64 17.86Q123.64 20.16 124.87 20.16Q126.2 20.16 127.28 17.89Q128.38 15.61 128.76 13.02Q127.95 12.61 127.61 11.74Q127.41 11.23 127.41 10.87Q127.41 10.49 127.51 10.21Q127.72 9.52 128.28 9.52ZM129.2 1.37Q129.2 0.61 128.74 0.58Q127.95 0.58 126.97 3.01Q126 5.44 125.13 9.05Q126.54 8.13 127.87 5.37Q129.2 2.6 129.2 1.37Z" />
				<path id="Instagumb  copy" fill="#000000" d="M35.58 23.75Q31.77 23.75 30.2 21.09Q29 19.01 29.67 16.61Q30.33 14.2 32.18 13.25Q33.05 12.82 34.07 12.82Q36.78 12.82 37.78 14.92Q38.22 15.84 38.22 16.68Q38.22 17.53 37.91 18.3Q37.24 20.06 35.73 20.06Q35.27 20.06 35.07 19.7L35.02 19.58Q36.12 19.58 36.73 18.01Q37.04 17.25 37.04 16.48Q37.04 15.68 36.71 14.87Q36.07 13.3 34.02 13.3Q31.97 13.3 30.77 15.3Q29.97 16.63 29.97 18.12Q29.97 18.73 30.1 19.4Q30.64 21.8 32.87 22.67Q33.87 23.06 35.35 23.06Q36.84 23.06 38.12 22.39Q39.42 21.7 40.21 20.5Q41.03 19.29 41.6 17.84Q42.16 16.38 42.52 14.56Q42.9 12.74 43.16 11.13Q43.88 6.55 44.46 4.8Q42.08 4.63 41.98 4.63Q38.35 4.63 36.89 7.01Q36.22 8.08 36.22 9.21Q36.22 9.75 36.37 10.28Q36.84 11.82 38.06 11.82Q38.06 12.02 37.86 12.2Q37.65 12.38 37.35 12.38Q35.89 12.38 35.27 10.87Q34.99 10.13 34.99 9.26Q34.99 8.39 35.5 7.31Q36.63 4.88 39.63 4.22Q40.57 4.01 41.34 4.01Q42.13 4.01 44.67 4.24Q45.82 1.32 47.97 1.32Q48.15 1.32 48.28 1.45Q48.43 1.55 48.51 1.76Q46.64 1.76 45.85 4.32L46.36 4.32Q49 4.32 50.04 2.65Q50.45 2.01 50.45 1.55Q50.45 0.35 49.61 0.35Q49.76 -0.11 50.2 -0.11Q50.94 -0.11 51.2 0.81Q51.27 1.14 51.27 1.45Q51.27 2.37 50.56 3.27Q49.2 4.91 46.33 4.91L45.69 4.91Q45.23 6.7 45 9.28Q44.77 11.84 44.49 13.53Q44.23 15.2 43.88 16.61Q43.54 18.01 42.85 19.37Q42.19 20.73 41.26 21.68Q40.34 22.6 38.88 23.19Q37.42 23.75 35.58 23.75ZM48.05 20.86Q47.33 20.86 47.33 19.76Q47.33 19.17 48.76 11.18Q48.84 10.64 49.23 10.64Q49.69 10.64 49.92 11.31Q50.04 11.67 50.04 12.1Q50.04 12.51 49.94 13L49.53 15.04L49.69 15.04Q51.99 9.87 54.09 9.87Q54.91 9.87 55.34 10.39Q55.78 10.87 55.78 11.74Q55.78 12.61 55.09 15.51Q54.4 18.4 54.4 19.52Q54.4 21.19 55.01 21.19Q55.01 21.37 54.78 21.55Q54.55 21.73 54.24 21.73Q52.76 21.73 52.76 19.4Q52.76 17.96 53.53 15.07Q54.32 12.15 54.32 11.36Q54.32 10.54 53.68 10.54Q52.76 10.54 51.45 12.95Q50.17 15.35 49.38 17.55Q48.61 19.73 48.48 20.29Q48.38 20.86 48.05 20.86ZM62 7.19L62.05 7.19Q62.28 7.21 62.41 7.39Q62.54 7.57 62.54 7.77Q62.54 7.95 62.18 8.57Q61.85 9.18 61.85 9.57Q61.85 9.92 61.95 10.26Q62.05 10.56 62.59 11.79Q63.77 14.48 63.77 16.61Q63.77 18.71 62.61 20.09Q61.49 21.47 59.9 21.47Q58.34 21.47 58.34 19.58Q58.34 17.66 59.7 15.48Q60.49 14.23 61.41 13.59Q61.67 13.41 61.74 13.66Q61.85 13.92 61.64 14.07Q60.16 15.15 59.34 17.48Q58.6 19.58 59.18 20.4Q59.39 20.7 59.77 20.7Q60.9 20.7 61.54 19.19Q62.18 17.68 62.18 15.43Q62.18 13.48 61.72 11.82Q61.26 10.16 61.21 9.9Q60.44 11.36 59.54 13.18L58.85 13.18Q60.31 10.28 61.1 8.82Q61.21 7.19 62 7.19ZM66.25 9.67Q66.25 9.39 66.61 9.39L67.94 9.39Q68.07 8.88 68.27 8.11L68.63 6.78Q68.78 6.19 68.89 5.7Q69.01 5.21 69.35 5.21Q69.78 5.21 69.96 5.88Q70.04 6.16 70.04 6.57Q70.04 6.98 69.88 7.62L69.4 9.39L70.99 9.39Q71.22 9.39 71.29 9.54Q71.4 9.69 71.29 9.85Q71.22 9.98 70.99 9.98L69.24 9.98Q67.66 15.94 67.66 18.42Q67.66 20.24 68.48 20.24Q69.14 20.24 70.35 18.48Q71.55 16.71 72.42 14.94L73.29 13.18L73.98 13.18Q73.83 13.48 73.57 14.02Q73.34 14.53 72.62 15.89Q71.91 17.22 71.24 18.24Q70.6 19.27 69.78 20.11Q68.99 20.93 68.3 20.93Q67.61 20.93 67.09 20.5Q66.61 20.04 66.45 19.22Q66.33 18.37 66.33 17.5Q66.33 15.48 67.76 9.98L66.61 9.98Q66.4 9.98 66.33 9.87Q66.25 9.75 66.25 9.67ZM73.98 20.88Q71.96 20.88 71.96 17.84Q71.96 16.07 72.88 13.97Q74.16 11.13 76.13 10.26Q76.82 9.98 77.51 9.98Q78.23 9.98 78.64 10.39Q79.05 10.8 79.05 11.31Q79.05 11.54 78.79 11.54Q78.56 11.51 78.56 11.28Q78.56 11.05 78.31 10.87Q78.08 10.67 77.62 10.67Q76 10.67 74.7 13.56Q73.47 16.25 73.47 18.65Q73.47 20.14 74.11 20.14Q74.77 20.14 75.7 19.04Q76.64 17.91 77.44 16.43Q79.15 13.3 79.46 12.41Q79.77 11.51 80.12 11.51Q80.76 11.51 80.76 12.59Q80.76 12.92 80.69 13.36Q79.84 17.45 79.77 18.09Q79.72 18.73 79.72 19.01Q79.72 20.24 80.3 20.24Q80.97 20.24 82.17 18.48Q83.38 16.71 84.25 14.94L85.12 13.18L85.81 13.18Q85.65 13.48 85.4 14.02Q85.17 14.53 84.45 15.89Q83.73 17.22 83.07 18.24Q82.43 19.27 81.61 20.11Q80.82 20.93 80.23 20.93Q78.33 20.93 78.33 18.17Q78.33 17.25 78.54 16.02L78.36 16.02Q75.75 20.88 73.98 20.88ZM91.95 11.51Q92.59 11.51 92.59 12.59Q92.59 13.36 91.75 17.04Q90.9 20.7 90.24 23.11Q89.57 25.52 88.98 26.69Q88.39 27.84 87.55 29.02Q86.73 30.2 85.73 30.64Q84.73 31.07 83.43 31.07Q81 31.07 81 28.59Q81 27.13 82.1 25.44Q83.68 22.96 86.35 22.16Q87.29 21.88 88.32 21.88Q88.5 21.88 88.5 22.24Q88.5 22.6 88.32 22.6Q85.3 22.6 83.25 24.98Q81.74 26.77 81.74 28.43Q81.74 30.1 83.02 30.35L83.43 30.38Q85.53 30.38 86.76 28.64Q88.01 26.87 88.73 24.18Q89.44 21.47 90.57 15.68L90.36 15.68Q87.6 20.88 85.81 20.88Q83.79 20.88 83.79 17.84Q83.79 16.07 84.71 13.97Q85.99 11.13 87.96 10.26Q88.65 9.98 89.34 9.98Q90.06 9.98 90.47 10.39Q90.88 10.8 90.88 11.31Q90.88 11.54 90.62 11.54Q90.39 11.51 90.39 11.28Q90.39 11.05 90.13 10.87Q89.9 10.67 89.44 10.67Q87.83 10.67 86.52 13.56Q85.3 16.25 85.3 18.65Q85.3 20.14 85.94 20.14Q86.78 20.14 88.14 18.14Q90.19 15.12 91.34 12.23Q91.64 11.51 91.95 11.51ZM102.19 20.24Q102.86 20.24 104.06 18.48Q105.26 16.71 106.13 14.94L107 13.18L107.7 13.18Q107.54 13.48 107.29 14.02Q107.06 14.53 106.34 15.89Q105.62 17.22 104.96 18.24Q104.32 19.27 103.5 20.11Q102.7 20.93 101.99 20.93Q101.27 20.93 100.81 20.5Q100.25 19.93 100.25 18.53Q100.25 17.12 100.73 14.81L100.55 14.81Q97.61 20.86 95.66 20.86Q93.95 20.86 93.95 18.63Q93.95 17.02 95.33 12.2Q95.64 11.1 95.79 10.56Q95.95 10 96.28 10Q96.74 10 96.94 10.67Q97.05 10.95 97.05 11.38Q97.05 11.79 96.92 12.31Q96.79 12.79 96.38 14.2Q95.28 17.99 95.28 19.29Q95.28 20.14 95.79 20.14Q96.43 20.14 97.3 18.99Q98.22 17.78 98.81 16.66Q99.4 15.53 99.76 14.81Q100.12 14.1 100.48 13.33Q100.84 12.54 101.04 12.02Q101.27 11.51 101.48 11.05Q101.68 10.56 101.68 10.54Q101.91 10 102.19 10Q102.65 10 102.86 10.67Q102.96 10.97 102.96 11.41Q102.96 11.84 102.86 12.33Q102.76 12.79 102.52 13.71Q102.29 14.64 102.17 15.22Q102.04 15.81 101.86 16.66Q101.6 18.07 101.6 19.17Q101.6 20.24 102.19 20.24ZM106.62 20.86Q105.9 20.86 105.9 19.76Q105.9 19.17 107.34 11.18Q107.41 10.64 107.8 10.64Q108.26 10.64 108.49 11.31Q108.62 11.67 108.62 12.1Q108.62 12.51 108.52 13L108.13 14.94L108.28 14.94Q110.54 9.87 112.64 9.87Q113.35 9.87 113.76 10.39Q114.2 10.9 114.2 11.61Q114.2 12.95 113.79 14.94L113.89 14.94Q116.07 10.21 118.17 10.21Q118.86 10.21 119.29 10.72Q119.73 11.23 119.73 12.08Q119.73 12.92 119.06 15.66Q118.42 18.4 118.42 19.52Q118.42 21.19 119.04 21.19Q119.04 21.37 118.81 21.55Q118.58 21.73 118.27 21.73Q116.78 21.73 116.78 19.4Q116.78 17.94 117.53 15.2Q118.27 12.43 118.27 11.67Q118.27 10.87 117.76 10.87Q116.81 10.87 115.53 13.18Q114.28 15.45 113.51 17.55Q112.76 19.65 112.64 20.27Q112.51 20.86 112.18 20.86Q111.46 20.86 111.46 19.76Q111.46 19.35 111.89 16.86Q112.74 12.31 112.74 11.44Q112.74 10.54 112.23 10.54Q111.54 10.54 110.61 11.97Q109.69 13.38 108.95 15.25Q107.34 19.19 107.06 20.34Q106.95 20.86 106.62 20.86ZM128.28 9.52Q129.43 9.52 129.43 11.92Q129.43 12.18 129.4 12.46Q129.71 12.56 130.3 12.56Q130.89 12.56 131.35 12.08Q131.81 11.59 131.81 11.18Q131.81 11.08 131.94 11.05Q132.07 11 132.17 11.05Q132.3 11.1 132.3 11.2Q132.3 11.95 131.66 12.61Q131.04 13.28 129.99 13.28Q129.71 13.28 129.35 13.23Q129.15 14.97 128.53 16.68Q127.92 18.37 126.9 19.63Q125.9 20.86 124.82 20.86Q122.29 20.86 122.29 17.35Q122.29 15.17 123.21 11.1Q124.16 7.01 125.72 3.5Q127.28 -0.01 128.69 -0.01Q129.76 -0.01 129.76 1.32Q129.76 1.78 129.64 2.4Q129.15 4.83 127.38 7.42Q126.05 9.36 124.95 9.82Q123.64 15.53 123.64 17.86Q123.64 20.16 124.87 20.16Q126.2 20.16 127.28 17.89Q128.38 15.61 128.76 13.02Q127.95 12.61 127.61 11.74Q127.41 11.23 127.41 10.87Q127.41 10.49 127.51 10.21Q127.72 9.52 128.28 9.52ZM129.2 1.37Q129.2 0.61 128.74 0.58Q127.95 0.58 126.97 3.01Q126 5.44 125.13 9.05Q126.54 8.13 127.87 5.37Q129.2 2.6 129.2 1.37Z" />
				<path id="Instagumb  copy copy" fill="#000000" d="M35.58 23.75Q31.77 23.75 30.2 21.09Q29 19.01 29.67 16.61Q30.33 14.2 32.18 13.25Q33.05 12.82 34.07 12.82Q36.78 12.82 37.78 14.92Q38.22 15.84 38.22 16.68Q38.22 17.53 37.91 18.3Q37.24 20.06 35.73 20.06Q35.27 20.06 35.07 19.7L35.02 19.58Q36.12 19.58 36.73 18.01Q37.04 17.25 37.04 16.48Q37.04 15.68 36.71 14.87Q36.07 13.3 34.02 13.3Q31.97 13.3 30.77 15.3Q29.97 16.63 29.97 18.12Q29.97 18.73 30.1 19.4Q30.64 21.8 32.87 22.67Q33.87 23.06 35.35 23.06Q36.84 23.06 38.12 22.39Q39.42 21.7 40.21 20.5Q41.03 19.29 41.6 17.84Q42.16 16.38 42.52 14.56Q42.9 12.74 43.16 11.13Q43.88 6.55 44.46 4.8Q42.08 4.63 41.98 4.63Q38.35 4.63 36.89 7.01Q36.22 8.08 36.22 9.21Q36.22 9.75 36.37 10.28Q36.84 11.82 38.06 11.82Q38.06 12.02 37.86 12.2Q37.65 12.38 37.35 12.38Q35.89 12.38 35.27 10.87Q34.99 10.13 34.99 9.26Q34.99 8.39 35.5 7.31Q36.63 4.88 39.63 4.22Q40.57 4.01 41.34 4.01Q42.13 4.01 44.67 4.24Q45.82 1.32 47.97 1.32Q48.15 1.32 48.28 1.45Q48.43 1.55 48.51 1.76Q46.64 1.76 45.85 4.32L46.36 4.32Q49 4.32 50.04 2.65Q50.45 2.01 50.45 1.55Q50.45 0.35 49.61 0.35Q49.76 -0.11 50.2 -0.11Q50.94 -0.11 51.2 0.81Q51.27 1.14 51.27 1.45Q51.27 2.37 50.56 3.27Q49.2 4.91 46.33 4.91L45.69 4.91Q45.23 6.7 45 9.28Q44.77 11.84 44.49 13.53Q44.23 15.2 43.88 16.61Q43.54 18.01 42.85 19.37Q42.19 20.73 41.26 21.68Q40.34 22.6 38.88 23.19Q37.42 23.75 35.58 23.75ZM48.05 20.86Q47.33 20.86 47.33 19.76Q47.33 19.17 48.76 11.18Q48.84 10.64 49.23 10.64Q49.69 10.64 49.92 11.31Q50.04 11.67 50.04 12.1Q50.04 12.51 49.94 13L49.53 15.04L49.69 15.04Q51.99 9.87 54.09 9.87Q54.91 9.87 55.34 10.39Q55.78 10.87 55.78 11.74Q55.78 12.61 55.09 15.51Q54.4 18.4 54.4 19.52Q54.4 21.19 55.01 21.19Q55.01 21.37 54.78 21.55Q54.55 21.73 54.24 21.73Q52.76 21.73 52.76 19.4Q52.76 17.96 53.53 15.07Q54.32 12.15 54.32 11.36Q54.32 10.54 53.68 10.54Q52.76 10.54 51.45 12.95Q50.17 15.35 49.38 17.55Q48.61 19.73 48.48 20.29Q48.38 20.86 48.05 20.86ZM62 7.19L62.05 7.19Q62.28 7.21 62.41 7.39Q62.54 7.57 62.54 7.77Q62.54 7.95 62.18 8.57Q61.85 9.18 61.85 9.57Q61.85 9.92 61.95 10.26Q62.05 10.56 62.59 11.79Q63.77 14.48 63.77 16.61Q63.77 18.71 62.61 20.09Q61.49 21.47 59.9 21.47Q58.34 21.47 58.34 19.58Q58.34 17.66 59.7 15.48Q60.49 14.23 61.41 13.59Q61.67 13.41 61.74 13.66Q61.85 13.92 61.64 14.07Q60.16 15.15 59.34 17.48Q58.6 19.58 59.18 20.4Q59.39 20.7 59.77 20.7Q60.9 20.7 61.54 19.19Q62.18 17.68 62.18 15.43Q62.18 13.48 61.72 11.82Q61.26 10.16 61.21 9.9Q60.44 11.36 59.54 13.18L58.85 13.18Q60.31 10.28 61.1 8.82Q61.21 7.19 62 7.19ZM66.25 9.67Q66.25 9.39 66.61 9.39L67.94 9.39Q68.07 8.88 68.27 8.11L68.63 6.78Q68.78 6.19 68.89 5.7Q69.01 5.21 69.35 5.21Q69.78 5.21 69.96 5.88Q70.04 6.16 70.04 6.57Q70.04 6.98 69.88 7.62L69.4 9.39L70.99 9.39Q71.22 9.39 71.29 9.54Q71.4 9.69 71.29 9.85Q71.22 9.98 70.99 9.98L69.24 9.98Q67.66 15.94 67.66 18.42Q67.66 20.24 68.48 20.24Q69.14 20.24 70.35 18.48Q71.55 16.71 72.42 14.94L73.29 13.18L73.98 13.18Q73.83 13.48 73.57 14.02Q73.34 14.53 72.62 15.89Q71.91 17.22 71.24 18.24Q70.6 19.27 69.78 20.11Q68.99 20.93 68.3 20.93Q67.61 20.93 67.09 20.5Q66.61 20.04 66.45 19.22Q66.33 18.37 66.33 17.5Q66.33 15.48 67.76 9.98L66.61 9.98Q66.4 9.98 66.33 9.87Q66.25 9.75 66.25 9.67ZM73.98 20.88Q71.96 20.88 71.96 17.84Q71.96 16.07 72.88 13.97Q74.16 11.13 76.13 10.26Q76.82 9.98 77.51 9.98Q78.23 9.98 78.64 10.39Q79.05 10.8 79.05 11.31Q79.05 11.54 78.79 11.54Q78.56 11.51 78.56 11.28Q78.56 11.05 78.31 10.87Q78.08 10.67 77.62 10.67Q76 10.67 74.7 13.56Q73.47 16.25 73.47 18.65Q73.47 20.14 74.11 20.14Q74.77 20.14 75.7 19.04Q76.64 17.91 77.44 16.43Q79.15 13.3 79.46 12.41Q79.77 11.51 80.12 11.51Q80.76 11.51 80.76 12.59Q80.76 12.92 80.69 13.36Q79.84 17.45 79.77 18.09Q79.72 18.73 79.72 19.01Q79.72 20.24 80.3 20.24Q80.97 20.24 82.17 18.48Q83.38 16.71 84.25 14.94L85.12 13.18L85.81 13.18Q85.65 13.48 85.4 14.02Q85.17 14.53 84.45 15.89Q83.73 17.22 83.07 18.24Q82.43 19.27 81.61 20.11Q80.82 20.93 80.23 20.93Q78.33 20.93 78.33 18.17Q78.33 17.25 78.54 16.02L78.36 16.02Q75.75 20.88 73.98 20.88ZM91.95 11.51Q92.59 11.51 92.59 12.59Q92.59 13.36 91.75 17.04Q90.9 20.7 90.24 23.11Q89.57 25.52 88.98 26.69Q88.39 27.84 87.55 29.02Q86.73 30.2 85.73 30.64Q84.73 31.07 83.43 31.07Q81 31.07 81 28.59Q81 27.13 82.1 25.44Q83.68 22.96 86.35 22.16Q87.29 21.88 88.32 21.88Q88.5 21.88 88.5 22.24Q88.5 22.6 88.32 22.6Q85.3 22.6 83.25 24.98Q81.74 26.77 81.74 28.43Q81.74 30.1 83.02 30.35L83.43 30.38Q85.53 30.38 86.76 28.64Q88.01 26.87 88.73 24.18Q89.44 21.47 90.57 15.68L90.36 15.68Q87.6 20.88 85.81 20.88Q83.79 20.88 83.79 17.84Q83.79 16.07 84.71 13.97Q85.99 11.13 87.96 10.26Q88.65 9.98 89.34 9.98Q90.06 9.98 90.47 10.39Q90.88 10.8 90.88 11.31Q90.88 11.54 90.62 11.54Q90.39 11.51 90.39 11.28Q90.39 11.05 90.13 10.87Q89.9 10.67 89.44 10.67Q87.83 10.67 86.52 13.56Q85.3 16.25 85.3 18.65Q85.3 20.14 85.94 20.14Q86.78 20.14 88.14 18.14Q90.19 15.12 91.34 12.23Q91.64 11.51 91.95 11.51ZM102.19 20.24Q102.86 20.24 104.06 18.48Q105.26 16.71 106.13 14.94L107 13.18L107.7 13.18Q107.54 13.48 107.29 14.02Q107.06 14.53 106.34 15.89Q105.62 17.22 104.96 18.24Q104.32 19.27 103.5 20.11Q102.7 20.93 101.99 20.93Q101.27 20.93 100.81 20.5Q100.25 19.93 100.25 18.53Q100.25 17.12 100.73 14.81L100.55 14.81Q97.61 20.86 95.66 20.86Q93.95 20.86 93.95 18.63Q93.95 17.02 95.33 12.2Q95.64 11.1 95.79 10.56Q95.95 10 96.28 10Q96.74 10 96.94 10.67Q97.05 10.95 97.05 11.38Q97.05 11.79 96.92 12.31Q96.79 12.79 96.38 14.2Q95.28 17.99 95.28 19.29Q95.28 20.14 95.79 20.14Q96.43 20.14 97.3 18.99Q98.22 17.78 98.81 16.66Q99.4 15.53 99.76 14.81Q100.12 14.1 100.48 13.33Q100.84 12.54 101.04 12.02Q101.27 11.51 101.48 11.05Q101.68 10.56 101.68 10.54Q101.91 10 102.19 10Q102.65 10 102.86 10.67Q102.96 10.97 102.96 11.41Q102.96 11.84 102.86 12.33Q102.76 12.79 102.52 13.71Q102.29 14.64 102.17 15.22Q102.04 15.81 101.86 16.66Q101.6 18.07 101.6 19.17Q101.6 20.24 102.19 20.24ZM106.62 20.86Q105.9 20.86 105.9 19.76Q105.9 19.17 107.34 11.18Q107.41 10.64 107.8 10.64Q108.26 10.64 108.49 11.31Q108.62 11.67 108.62 12.1Q108.62 12.51 108.52 13L108.13 14.94L108.28 14.94Q110.54 9.87 112.64 9.87Q113.35 9.87 113.76 10.39Q114.2 10.9 114.2 11.61Q114.2 12.95 113.79 14.94L113.89 14.94Q116.07 10.21 118.17 10.21Q118.86 10.21 119.29 10.72Q119.73 11.23 119.73 12.08Q119.73 12.92 119.06 15.66Q118.42 18.4 118.42 19.52Q118.42 21.19 119.04 21.19Q119.04 21.37 118.81 21.55Q118.58 21.73 118.27 21.73Q116.78 21.73 116.78 19.4Q116.78 17.94 117.53 15.2Q118.27 12.43 118.27 11.67Q118.27 10.87 117.76 10.87Q116.81 10.87 115.53 13.18Q114.28 15.45 113.51 17.55Q112.76 19.65 112.64 20.27Q112.51 20.86 112.18 20.86Q111.46 20.86 111.46 19.76Q111.46 19.35 111.89 16.86Q112.74 12.31 112.74 11.44Q112.74 10.54 112.23 10.54Q111.54 10.54 110.61 11.97Q109.69 13.38 108.95 15.25Q107.34 19.19 107.06 20.34Q106.95 20.86 106.62 20.86ZM128.28 9.52Q129.43 9.52 129.43 11.92Q129.43 12.18 129.4 12.46Q129.71 12.56 130.3 12.56Q130.89 12.56 131.35 12.08Q131.81 11.59 131.81 11.18Q131.81 11.08 131.94 11.05Q132.07 11 132.17 11.05Q132.3 11.1 132.3 11.2Q132.3 11.95 131.66 12.61Q131.04 13.28 129.99 13.28Q129.71 13.28 129.35 13.23Q129.15 14.97 128.53 16.68Q127.92 18.37 126.9 19.63Q125.9 20.86 124.82 20.86Q122.29 20.86 122.29 17.35Q122.29 15.17 123.21 11.1Q124.16 7.01 125.72 3.5Q127.28 -0.01 128.69 -0.01Q129.76 -0.01 129.76 1.32Q129.76 1.78 129.64 2.4Q129.15 4.83 127.38 7.42Q126.05 9.36 124.95 9.82Q123.64 15.53 123.64 17.86Q123.64 20.16 124.87 20.16Q126.2 20.16 127.28 17.89Q128.38 15.61 128.76 13.02Q127.95 12.61 127.61 11.74Q127.41 11.23 127.41 10.87Q127.41 10.49 127.51 10.21Q127.72 9.52 128.28 9.52ZM129.2 1.37Q129.2 0.61 128.74 0.58Q127.95 0.58 126.97 3.01Q126 5.44 125.13 9.05Q126.54 8.13 127.87 5.37Q129.2 2.6 129.2 1.37Z" />
			</g>
		</g>
	</g>
</svg>